<?xml version="1.0" encoding="UTF-8"?>
<!DOCTYPE svg PUBLIC "-//W3C//DTD SVG 1.1//EN" "http://www.w3.org/Graphics/SVG/1.1/DTD/svg11.dtd">
<svg xmlns="http://www.w3.org/2000/svg" version="1.1" width="1145px" height="652px" style="shape-rendering:geometricPrecision; text-rendering:geometricPrecision; image-rendering:optimizeQuality; fill-rule:evenodd; clip-rule:evenodd" xmlns:xlink="http://www.w3.org/1999/xlink">
<g><path style="opacity:0.981" fill="#4d4d4d" d="M 456.5,-0.5 C 457.167,-0.5 457.833,-0.5 458.5,-0.5C 464.551,15.477 470.718,31.477 477,47.5C 475.997,33.4754 474.497,19.4754 472.5,5.5C 482.033,8.93064 491.367,12.9306 500.5,17.5C 501.861,19.0284 503.028,20.6951 504,22.5C 510.851,67.788 517.517,113.121 524,158.5C 526.682,160.616 529.682,160.95 533,159.5C 535.253,159.631 537.419,160.131 539.5,161C 542.167,163.667 544.833,166.333 547.5,169C 551.316,169.401 554.983,168.734 558.5,167C 676.167,126 793.833,85 911.5,44C 914.833,43.3333 918.167,43.3333 921.5,44C 934.321,48.2732 946.987,52.9399 959.5,58C 961.617,59.7309 963.117,61.8976 964,64.5C 967.626,72.3905 970.626,80.3905 973,88.5C 931.314,102.381 889.481,115.881 847.5,129C 888.871,123.216 930.205,117.216 971.5,111C 967.948,117.882 963.615,124.216 958.5,130C 828.888,158.123 699.221,186.123 569.5,214C 567.671,214.273 566.171,215.107 565,216.5C 564.891,221.056 563.891,225.389 562,229.5C 557.465,232.895 552.632,235.728 547.5,238C 565.128,274.09 582.628,310.257 600,346.5C 600.948,348.57 602.448,350.07 604.5,351C 611.333,352.167 618.166,353.333 625,354.5C 626.888,354.204 628.722,353.704 630.5,353C 652.458,340.438 674.624,328.271 697,316.5C 697.667,317.5 697.667,318.5 697,319.5C 690.852,327.907 685.352,336.24 680.5,344.5C 714.71,328.721 749.043,313.554 783.5,299C 783.833,299.333 784.167,299.667 784.5,300C 756.5,324 728.5,348 700.5,372C 705.536,370.098 710.869,368.932 716.5,368.5C 739.497,371.999 762.497,375.499 785.5,379C 788.333,379.833 790.167,381.667 791,384.5C 793.342,392.359 796.175,400.026 799.5,407.5C 719.804,417.67 639.804,426.003 559.5,432.5C 550.138,432.481 540.805,431.981 531.5,431C 475.867,424.374 420.201,418.041 364.5,412C 363.941,411.275 363.608,410.442 363.5,409.5C 365.333,402.833 367.167,396.167 369,389.5C 370.833,386.333 373.333,383.833 376.5,382C 401.68,378.637 426.68,374.303 451.5,369C 438.167,360 424.833,351 411.5,342C 410.167,341.333 410.167,340.667 411.5,340C 413.5,339.333 415.5,339.333 417.5,340C 437.77,344.654 458.104,348.654 478.5,352C 440.333,315.167 402.167,278.333 364,241.5C 363.517,240.552 363.351,239.552 363.5,238.5C 415.901,269.541 467.901,301.374 519.5,334C 521.089,335.543 522.423,335.543 523.5,334C 519.154,307.437 514.487,280.937 509.5,254.5C 509,254.167 508.5,253.833 508,253.5C 502.223,255.972 496.39,258.305 490.5,260.5C 489.069,260.023 487.736,259.357 486.5,258.5C 476.565,243.631 467.398,228.297 459,212.5C 459.205,197.845 459.872,183.178 461,168.5C 461.839,167.376 463.006,166.709 464.5,166.5C 469.93,166.054 475.263,165.221 480.5,164C 469.539,143.913 458.706,123.746 448,103.5C 445.932,91.9631 442.265,80.9631 437,70.5C 432.262,55.4522 427.428,40.4522 422.5,25.5C 422.57,24.2284 422.903,23.0617 423.5,22C 434.566,14.4772 445.566,6.97716 456.5,-0.5 Z"/></g>
<g><path style="opacity:0.97" fill="#f8ae1f" d="M 336.5,123.5 C 335.502,153.329 335.169,183.329 335.5,213.5C 330.573,218.302 325.24,222.635 319.5,226.5C 319.81,215.419 319.477,204.419 318.5,193.5C 322.932,187.775 323.599,181.608 320.5,175C 326.571,172.431 330.238,167.931 331.5,161.5C 329.541,157.04 326.207,154.207 321.5,153C 322.689,150.122 324.022,147.288 325.5,144.5C 324.758,143.713 323.925,143.047 323,142.5C 321.595,143.731 320.429,145.064 319.5,146.5C 319.826,137.651 319.493,128.984 318.5,120.5C 325.508,115.668 331.508,116.668 336.5,123.5 Z"/></g>
<g><path style="opacity:0.934" fill="#f9b81f" d="M 318.5,120.5 C 319.493,128.984 319.826,137.651 319.5,146.5C 318.375,150.877 315.708,152.21 311.5,150.5C 312.305,148.085 313.305,145.751 314.5,143.5C 313.675,142.614 312.675,142.281 311.5,142.5C 311.823,135.978 311.49,129.645 310.5,123.5C 312.936,122.129 315.603,121.129 318.5,120.5 Z"/></g>
<g><path style="opacity:0.983" fill="#f8a51f" d="M 336.5,123.5 C 339.784,125.117 342.451,127.45 344.5,130.5C 343.502,155.995 343.169,181.661 343.5,207.5C 341.2,209.984 338.533,211.984 335.5,213.5C 335.169,183.329 335.502,153.329 336.5,123.5 Z"/></g>
<g><path style="opacity:0.959" fill="#f9c21f" d="M 310.5,123.5 C 311.49,129.645 311.823,135.978 311.5,142.5C 309.327,144.948 307.327,147.614 305.5,150.5C 302.188,151.618 298.855,151.618 295.5,150.5C 295.5,143.5 295.5,136.5 295.5,129.5C 300.105,126.738 305.105,124.738 310.5,123.5 Z"/></g>
<g><path style="opacity:0.98" fill="#f89f1e" d="M 344.5,130.5 C 347.192,132.862 349.859,135.196 352.5,137.5C 351.167,158.5 351.167,179.5 352.5,200.5C 349.81,203.185 346.81,205.518 343.5,207.5C 343.169,181.661 343.502,155.995 344.5,130.5 Z"/></g>
<g><path style="opacity:0.58" fill="#000000" d="M 209.5,132.5 C 211.423,136.029 212.089,140.029 211.5,144.5C 210.5,144.5 209.5,144.5 208.5,144.5C 208.237,140.4 208.57,136.4 209.5,132.5 Z"/></g>
<g><path style="opacity:0.972" fill="#facf20" d="M 295.5,129.5 C 295.5,136.5 295.5,143.5 295.5,150.5C 293.151,150.458 291.818,151.625 291.5,154C 292.098,155.301 293.098,156.135 294.5,156.5C 295.631,158.074 295.798,159.741 295,161.5C 290.03,170.281 284.53,178.614 278.5,186.5C 278.5,169.5 278.5,152.5 278.5,135.5C 284.066,133.217 289.733,131.217 295.5,129.5 Z"/></g>
<g><path style="opacity:0.977" fill="#f7981e" d="M 352.5,137.5 C 356.907,140.738 360.407,144.738 363,149.5C 364.842,163.539 364.842,177.539 363,191.5C 359.922,195.085 356.422,198.085 352.5,200.5C 351.167,179.5 351.167,158.5 352.5,137.5 Z"/></g>
<g><path style="opacity:0.975" fill="#fbdb20" d="M 278.5,135.5 C 278.5,152.5 278.5,169.5 278.5,186.5C 276.369,187.314 274.036,187.814 271.5,188C 270.257,189.154 269.257,190.488 268.5,192C 272.167,193 275.833,194 279.5,195C 277.467,197.896 276.134,201.063 275.5,204.5C 276.5,204.5 277.5,204.5 278.5,204.5C 278.5,213.833 278.5,223.167 278.5,232.5C 273.1,233.033 267.766,233.033 262.5,232.5C 262.5,206.833 262.5,181.167 262.5,155.5C 264.185,149.796 266.685,144.463 270,139.5C 272.663,137.751 275.497,136.418 278.5,135.5 Z"/></g>
<g><path style="opacity:0.964" fill="#fbe521" d="M 262.5,155.5 C 262.5,181.167 262.5,206.833 262.5,232.5C 255.268,220.004 249.268,206.837 244.5,193C 249.587,179.995 255.587,167.495 262.5,155.5 Z"/></g>
<g><path style="opacity:0.938" fill="#f9c21f" d="M 311.5,158.5 C 311.5,162.833 311.5,167.167 311.5,171.5C 310.081,172.451 308.415,172.784 306.5,172.5C 306.5,168.167 306.5,163.833 306.5,159.5C 308.042,158.699 309.708,158.366 311.5,158.5 Z"/></g>
<g><path style="opacity:0.818" fill="#fbdb20" d="M 306.5,159.5 C 306.5,163.833 306.5,168.167 306.5,172.5C 304.064,172.251 302.064,171.251 300.5,169.5C 302.023,165.771 304.023,162.438 306.5,159.5 Z"/></g>
<g><path style="opacity:0.925" fill="#f8a71e" d="M 311.5,158.5 C 319.413,161.065 320.413,165.232 314.5,171C 313.552,171.483 312.552,171.649 311.5,171.5C 311.5,167.167 311.5,162.833 311.5,158.5 Z"/></g>
<g><path style="opacity:0.982" fill="#f9c11f" d="M 304.5,177.5 C 304.5,181.833 304.5,186.167 304.5,190.5C 301.833,190.5 299.167,190.5 296.5,190.5C 296.5,186.167 296.5,181.833 296.5,177.5C 299.061,176.233 301.728,176.233 304.5,177.5 Z"/></g>
<g><path style="opacity:0.921" fill="#f7a21e" d="M 304.5,177.5 C 313.662,181.587 313.662,185.92 304.5,190.5C 304.5,186.167 304.5,181.833 304.5,177.5 Z"/></g>
<g><path style="opacity:0.897" fill="#fbdc20" d="M 296.5,177.5 C 296.5,181.833 296.5,186.167 296.5,190.5C 293.813,190.664 291.146,190.497 288.5,190C 290.567,185.344 293.234,181.178 296.5,177.5 Z"/></g>
<g><path style="opacity:1" fill="#fafafa" d="M 478.5,185.5 C 480.017,185.511 481.184,186.177 482,187.5C 486,192.833 490,198.167 494,203.5C 493.952,215.182 493.285,226.849 492,238.5C 486.333,228.833 480.667,219.167 475,209.5C 474.333,206.5 474.333,203.5 475,200.5C 476.328,195.522 477.495,190.522 478.5,185.5 Z"/></g>
<g><path style="opacity:0.982" fill="#fac420" d="M 303.5,198.5 C 303.5,209.5 303.5,220.5 303.5,231.5C 300.833,231.5 298.167,231.5 295.5,231.5C 295.828,220.986 295.494,210.653 294.5,200.5C 297.123,198.735 300.123,198.068 303.5,198.5 Z"/></g>
<g><path style="opacity:0.974" fill="#f9bc1f" d="M 318.5,193.5 C 319.477,204.419 319.81,215.419 319.5,226.5C 314.968,230.307 309.635,231.973 303.5,231.5C 303.5,220.5 303.5,209.5 303.5,198.5C 309.294,199.013 314.294,197.346 318.5,193.5 Z"/></g>
<g><path style="opacity:0.955" fill="#facd20" d="M 294.5,200.5 C 295.494,210.653 295.828,220.986 295.5,231.5C 290.025,232.489 284.358,232.822 278.5,232.5C 278.5,223.167 278.5,213.833 278.5,204.5C 280.841,202.344 282.841,199.844 284.5,197C 286.925,196.014 288.591,196.681 289.5,199C 288.061,201.705 287.061,204.538 286.5,207.5C 287.873,207.657 289.207,207.49 290.5,207C 291.733,204.686 293.067,202.519 294.5,200.5 Z"/></g>
<g><path style="opacity:0.982" fill="#fbd920" d="M 815.5,219.5 C 815.5,243.833 815.5,268.167 815.5,292.5C 810.887,290.544 807.22,287.544 804.5,283.5C 805.825,263.402 805.825,243.402 804.5,223.5C 804.859,221.629 805.859,220.129 807.5,219C 810.192,218.57 812.859,218.737 815.5,219.5 Z"/></g>
<g><path style="opacity:0.935" fill="#facf20" d="M 815.5,219.5 C 819.112,220.422 822.779,221.089 826.5,221.5C 826.823,228.022 826.49,234.355 825.5,240.5C 823.606,239.952 821.94,238.952 820.5,237.5C 820.167,238.167 819.833,238.833 819.5,239.5C 818.165,246.835 817.831,254.168 818.5,261.5C 820.592,259.395 822.925,257.728 825.5,256.5C 826.451,257.919 826.784,259.585 826.5,261.5C 823.757,263.239 821.757,265.573 820.5,268.5C 820.5,277.5 820.5,286.5 820.5,295.5C 818.566,294.89 816.899,293.89 815.5,292.5C 815.5,268.167 815.5,243.833 815.5,219.5 Z"/></g>
<g><path style="opacity:0.95" fill="#f9c01f" d="M 826.5,221.5 C 830.137,221.87 833.47,222.87 836.5,224.5C 836.826,232.684 836.492,240.684 835.5,248.5C 831.854,246.183 828.52,243.516 825.5,240.5C 826.49,234.355 826.823,228.022 826.5,221.5 Z"/></g>
<g><path style="opacity:0.954" fill="#fbe521" d="M 804.5,223.5 C 805.825,243.402 805.825,263.402 804.5,283.5C 799.376,271.517 795.709,259.017 793.5,246C 795.425,237.65 799.092,230.15 804.5,223.5 Z"/></g>
<g><path style="opacity:0.922" fill="#f9b41f" d="M 836.5,224.5 C 841.043,226.372 844.71,229.372 847.5,233.5C 847.804,242.584 847.471,251.584 846.5,260.5C 843.211,259.626 839.877,258.959 836.5,258.5C 836.5,257.167 836.5,255.833 836.5,254.5C 838.819,255.167 841.153,255.334 843.5,255C 840.645,252.969 837.978,250.803 835.5,248.5C 836.492,240.684 836.826,232.684 836.5,224.5 Z"/></g>
<g><path style="opacity:0.923" fill="#f8ad1f" d="M 847.5,233.5 C 849.5,234.833 851.167,236.5 852.5,238.5C 852.807,248.582 852.474,258.582 851.5,268.5C 848.666,270.502 846.333,273.002 844.5,276C 841.773,277.636 839.107,277.802 836.5,276.5C 836.5,275.167 836.5,273.833 836.5,272.5C 838.722,272.822 840.556,272.155 842,270.5C 844.167,267.667 846.333,264.833 848.5,262C 847.956,261.283 847.289,260.783 846.5,260.5C 847.471,251.584 847.804,242.584 847.5,233.5 Z"/></g>
<g><path style="opacity:0.969" fill="#f8a61f" d="M 852.5,238.5 C 854.5,239.833 856.167,241.5 857.5,243.5C 857.5,265.5 857.5,287.5 857.5,309.5C 854.272,310.414 850.939,310.747 847.5,310.5C 847.5,303.5 847.5,296.5 847.5,289.5C 848.725,288.848 849.392,287.681 849.5,286C 850.496,280.197 851.163,274.364 851.5,268.5C 852.474,258.582 852.807,248.582 852.5,238.5 Z"/></g>
<g><path style="opacity:0.974" fill="#f89f1e" d="M 857.5,243.5 C 859.5,244.833 861.167,246.5 862.5,248.5C 862.5,268.5 862.5,288.5 862.5,308.5C 860.784,308.629 859.117,308.962 857.5,309.5C 857.5,287.5 857.5,265.5 857.5,243.5 Z"/></g>
<g><path style="opacity:0.975" fill="#f7981e" d="M 862.5,248.5 C 868.069,252.219 870.736,257.386 870.5,264C 870.034,278.2 869.2,292.366 868,306.5C 866.185,307.244 864.352,307.911 862.5,308.5C 862.5,288.5 862.5,268.5 862.5,248.5 Z"/></g>
<g><path style="opacity:0.758" fill="#f9c21f" d="M 836.5,254.5 C 836.5,255.833 836.5,257.167 836.5,258.5C 832.752,258.307 829.418,259.307 826.5,261.5C 826.784,259.585 826.451,257.919 825.5,256.5C 826.347,255.034 827.68,254.2 829.5,254C 832.039,253.204 834.372,253.371 836.5,254.5 Z"/></g>
<g><path style="opacity:0.958" fill="#f9c71f" d="M 820.5,268.5 C 825.927,269.523 831.26,270.857 836.5,272.5C 836.5,273.833 836.5,275.167 836.5,276.5C 833.165,275.661 829.832,275.161 826.5,275C 828.346,276.03 830.013,277.196 831.5,278.5C 831.801,286.586 831.467,294.586 830.5,302.5C 826.779,300.646 823.446,298.313 820.5,295.5C 820.5,286.5 820.5,277.5 820.5,268.5 Z"/></g>
<g><path style="opacity:0.931" fill="#f9b81f" d="M 831.5,278.5 C 837.218,281.686 842.552,285.352 847.5,289.5C 847.5,296.5 847.5,303.5 847.5,310.5C 841.144,309.154 835.477,306.487 830.5,302.5C 831.467,294.586 831.801,286.586 831.5,278.5 Z"/></g>
<g><path style="opacity:0.956" fill="#fbe621" d="M 320.5,286.5 C 320.5,299.833 320.5,313.167 320.5,326.5C 312.055,320.763 309.055,312.763 311.5,302.5C 311.667,297.5 311.833,292.5 312,287.5C 314.719,286.556 317.552,286.223 320.5,286.5 Z"/></g>
<g><path style="opacity:0.964" fill="#fbd920" d="M 320.5,286.5 C 323.57,286.368 326.57,286.701 329.5,287.5C 329.5,293.833 329.5,300.167 329.5,306.5C 329.5,308.167 329.5,309.833 329.5,311.5C 329.799,319.253 329.466,326.92 328.5,334.5C 325.5,332.167 322.833,329.5 320.5,326.5C 320.5,313.167 320.5,299.833 320.5,286.5 Z"/></g>
<g><path style="opacity:0.952" fill="#facc20" d="M 329.5,287.5 C 332.167,287.5 334.833,287.5 337.5,287.5C 337.5,293.167 337.5,298.833 337.5,304.5C 334.117,302.772 331.45,303.439 329.5,306.5C 329.5,300.167 329.5,293.833 329.5,287.5 Z"/></g>
<g><path style="opacity:0.926" fill="#f9c01f" d="M 337.5,287.5 C 340.781,287.42 343.781,288.087 346.5,289.5C 345.167,298.833 345.167,308.167 346.5,317.5C 345.48,318.954 344.313,319.287 343,318.5C 342.667,314.833 342.333,311.167 342,307.5C 341.411,305.137 339.911,304.137 337.5,304.5C 337.5,298.833 337.5,293.167 337.5,287.5 Z"/></g>
<g><path style="opacity:0.956" fill="#f9b41f" d="M 346.5,289.5 C 349.5,291.833 352.167,294.5 354.5,297.5C 354.5,312.5 354.5,327.5 354.5,342.5C 351.5,342.5 348.5,342.5 345.5,342.5C 345.5,337.167 345.5,331.833 345.5,326.5C 349.046,324.243 350.713,320.91 350.5,316.5C 349.041,316.433 347.708,316.766 346.5,317.5C 345.167,308.167 345.167,298.833 346.5,289.5 Z"/></g>
<g><path style="opacity:0.952" fill="#f8a71f" d="M 354.5,297.5 C 357.54,300.539 360.206,303.873 362.5,307.5C 362.5,319.167 362.5,330.833 362.5,342.5C 359.833,342.5 357.167,342.5 354.5,342.5C 354.5,327.5 354.5,312.5 354.5,297.5 Z"/></g>
<g><path style="opacity:0.924" fill="#facc20" d="M 337.5,322.5 C 337.5,328.833 337.5,335.167 337.5,341.5C 333.637,340.306 330.637,337.973 328.5,334.5C 329.466,326.92 329.799,319.253 329.5,311.5C 332.167,311.167 334.833,310.833 337.5,310.5C 337.5,314.5 337.5,318.5 337.5,322.5 Z"/></g>
<g><path style="opacity:0.87" fill="#f79b1e" d="M 362.5,307.5 C 366.061,310.253 368.228,313.92 369,318.5C 370.438,326.525 371.938,334.525 373.5,342.5C 369.833,342.5 366.167,342.5 362.5,342.5C 362.5,330.833 362.5,319.167 362.5,307.5 Z"/></g>
<g><path style="opacity:0.928" fill="#f9c11f" d="M 337.5,322.5 C 339.476,324.927 342.143,326.261 345.5,326.5C 345.5,331.833 345.5,337.167 345.5,342.5C 342.615,342.806 339.948,342.473 337.5,341.5C 337.5,335.167 337.5,328.833 337.5,322.5 Z"/></g>
<g><path style="opacity:0.933" fill="#000000" d="M 801.5,439.5 C 807.5,439.5 813.5,439.5 819.5,439.5C 819.5,462.833 819.5,486.167 819.5,509.5C 825.509,509.666 831.509,509.499 837.5,509C 839.421,508.64 841.088,507.806 842.5,506.5C 849.098,496.724 855.098,486.557 860.5,476C 866.859,475.169 873.193,475.336 879.5,476.5C 874.254,486.661 868.754,496.661 863,506.5C 860.167,510.667 856.667,514.167 852.5,517C 856.24,518.29 859.407,520.457 862,523.5C 869.033,535.037 875.866,546.703 882.5,558.5C 875.833,559.833 869.167,559.833 862.5,558.5C 857.747,550.662 853.247,542.662 849,534.5C 846.004,528.5 841.171,525.334 834.5,525C 829.511,524.501 824.511,524.334 819.5,524.5C 819.5,536.167 819.5,547.833 819.5,559.5C 813.5,559.5 807.5,559.5 801.5,559.5C 801.5,519.5 801.5,479.5 801.5,439.5 Z"/></g>
<g><path style="opacity:0.975" fill="#ecda2d" d="M 214.5,444.5 C 220.167,444.5 225.833,444.5 231.5,444.5C 231.5,451.167 231.5,457.833 231.5,464.5C 225.833,464.5 220.167,464.5 214.5,464.5C 214.5,457.833 214.5,451.167 214.5,444.5 Z"/></g>
<g><path style="opacity:0.953" fill="#ecda2d" d="M -0.5,517.5 C -0.5,509.833 -0.5,502.167 -0.5,494.5C 1.99266,470.839 14.9927,457.006 38.5,453C 55.1633,452.5 71.83,452.333 88.5,452.5C 88.5,458.833 88.5,465.167 88.5,471.5C 74.496,471.333 60.496,471.5 46.5,472C 31.7082,471.963 22.8749,479.13 20,493.5C 17.5549,505.938 18.8883,517.938 24,529.5C 26.9889,533.491 30.8222,536.324 35.5,538C 53.1108,539.445 70.7775,539.945 88.5,539.5C 88.5,546.167 88.5,552.833 88.5,559.5C 73.163,559.667 57.8297,559.5 42.5,559C 16.7955,556.794 2.46219,542.96 -0.5,517.5 Z"/></g>
<g><path style="opacity:0.952" fill="#000000" d="M 443.5,452.5 C 460.167,452.5 476.833,452.5 493.5,452.5C 493.5,458.833 493.5,465.167 493.5,471.5C 479.496,471.333 465.496,471.5 451.5,472C 437.439,471.597 428.605,478.097 425,491.5C 422.603,503.353 423.27,515.02 427,526.5C 430.77,533.476 436.603,537.642 444.5,539C 460.83,539.5 477.163,539.667 493.5,539.5C 493.5,546.167 493.5,552.833 493.5,559.5C 477.83,559.667 462.163,559.5 446.5,559C 424.825,557.654 411.325,546.487 406,525.5C 402.539,508.904 403.539,492.571 409,476.5C 416.112,462.194 427.612,454.194 443.5,452.5 Z"/></g>
<g><path style="opacity:0.947" fill="#ecda2d" d="M 134.5,475.5 C 146.562,475.085 158.562,475.585 170.5,477C 186.317,482.433 194.484,493.6 195,510.5C 196.464,523.261 194.13,535.261 188,546.5C 181.545,553.977 173.379,558.144 163.5,559C 120.394,566.419 101.228,548.585 106,505.5C 108.571,488.765 118.071,478.765 134.5,475.5 Z M 137.5,492.5 C 145.84,492.334 154.173,492.5 162.5,493C 171.532,494.704 176.365,500.204 177,509.5C 178.204,518.124 177.204,526.458 174,534.5C 171.635,537.869 168.468,540.036 164.5,541C 154.838,542.959 145.171,542.959 135.5,541C 130.427,539.594 126.927,536.428 125,531.5C 121.695,520.583 122.361,509.916 127,499.5C 129.998,496.262 133.498,493.929 137.5,492.5 Z"/></g>
<g><path style="opacity:0.971" fill="#ecda2d" d="M 214.5,475.5 C 220.167,475.5 225.833,475.5 231.5,475.5C 231.5,503.5 231.5,531.5 231.5,559.5C 225.833,559.5 220.167,559.5 214.5,559.5C 214.5,531.5 214.5,503.5 214.5,475.5 Z"/></g>
<g><path style="opacity:0.945" fill="#ecda2d" d="M 261.5,475.5 C 279.875,475.082 298.208,475.582 316.5,477C 330.333,480.167 338.833,488.667 342,502.5C 342.5,521.497 342.667,540.497 342.5,559.5C 336.833,559.5 331.167,559.5 325.5,559.5C 325.667,543.163 325.5,526.83 325,510.5C 323.833,500 318,494.167 307.5,493C 295.838,492.5 284.171,492.333 272.5,492.5C 272.5,514.833 272.5,537.167 272.5,559.5C 266.5,559.5 260.5,559.5 254.5,559.5C 254.333,533.831 254.5,508.165 255,482.5C 256.018,478.985 258.185,476.652 261.5,475.5 Z"/></g>
<g><path style="opacity:0.932" fill="#000000" d="M 529.5,475.5 C 543.167,475.5 556.833,475.5 570.5,475.5C 570.5,481.167 570.5,486.833 570.5,492.5C 559.495,492.333 548.495,492.5 537.5,493C 535.061,493.774 533.227,495.274 532,497.5C 531.5,518.164 531.333,538.831 531.5,559.5C 525.5,559.5 519.5,559.5 513.5,559.5C 513.333,537.164 513.5,514.831 514,492.5C 515.099,482.883 520.265,477.217 529.5,475.5 Z"/></g>
<g><path style="opacity:0.954" fill="#000000" d="M 589.5,475.5 C 608.836,475.333 628.17,475.5 647.5,476C 658.145,477.979 664.978,484.146 668,494.5C 668.667,513.167 668.667,531.833 668,550.5C 666.005,556.421 661.838,559.255 655.5,559C 639.5,559.667 623.5,559.667 607.5,559C 595.193,558.606 587.693,552.439 585,540.5C 581.469,524.707 587.303,514.541 602.5,510C 618.83,509.5 635.163,509.333 651.5,509.5C 653.456,501.58 650.789,496.08 643.5,493C 625.503,492.5 607.503,492.333 589.5,492.5C 589.5,486.833 589.5,481.167 589.5,475.5 Z M 607.5,523.5 C 622.167,523.5 636.833,523.5 651.5,523.5C 651.808,529.425 651.475,535.259 650.5,541C 635.86,542.944 621.194,542.944 606.5,541C 599.711,534.687 600.045,528.853 607.5,523.5 Z"/></g>
<g><path style="opacity:0.951" fill="#000000" d="M 698.5,475.5 C 716.875,475.082 735.208,475.582 753.5,477C 767.809,480.308 776.309,489.141 779,503.5C 779.5,522.164 779.667,540.83 779.5,559.5C 773.5,559.5 767.5,559.5 761.5,559.5C 761.962,540.432 761.462,521.432 760,502.5C 757.708,498.212 754.208,495.378 749.5,494C 735.973,492.251 722.473,492.084 709,493.5C 708.5,515.497 708.333,537.497 708.5,559.5C 702.833,559.5 697.167,559.5 691.5,559.5C 691.333,533.831 691.5,508.165 692,482.5C 693.018,478.985 695.185,476.652 698.5,475.5 Z"/></g>
<g><path style="opacity:0.944" fill="#000000" d="M 911.5,475.5 C 925.504,475.333 939.504,475.5 953.5,476C 967.51,478.314 974.51,486.648 974.5,501C 974.57,514.239 968.237,522.239 955.5,525C 939.17,525.5 922.837,525.667 906.5,525.5C 906.392,529.247 906.892,532.914 908,536.5C 909.227,538.726 911.061,540.226 913.5,541C 932.453,542.435 951.453,542.935 970.5,542.5C 970.5,548.167 970.5,553.833 970.5,559.5C 951.83,559.667 933.164,559.5 914.5,559C 900.577,557.743 892.41,550.243 890,536.5C 889.089,522.12 889.422,507.786 891,493.5C 893.963,483.034 900.796,477.034 911.5,475.5 Z M 914.5,492.5 C 927.241,492.059 939.908,492.559 952.5,494C 956.203,497.396 957.369,501.563 956,506.5C 954.891,508.815 953.057,510.315 950.5,511C 935.837,511.5 921.17,511.667 906.5,511.5C 906.305,507.085 906.805,502.751 908,498.5C 909.494,495.686 911.66,493.686 914.5,492.5 Z"/></g>
<g><path style="opacity:0.956" fill="#000000" d="M 1009.5,475.5 C 1023.17,475.5 1036.83,475.5 1050.5,475.5C 1050.5,481.167 1050.5,486.833 1050.5,492.5C 1039.49,492.333 1028.49,492.5 1017.5,493C 1013,494.492 1010.83,497.659 1011,502.5C 1010.5,521.497 1010.33,540.497 1010.5,559.5C 1004.83,559.5 999.167,559.5 993.5,559.5C 993.333,536.831 993.5,514.164 994,491.5C 995.374,482.295 1000.54,476.962 1009.5,475.5 Z"/></g>
<g><path style="opacity:0.943" fill="#000000" d="M 1144.5,487.5 C 1144.5,492.5 1144.5,497.5 1144.5,502.5C 1142.81,506.008 1140.48,509.175 1137.5,512C 1120.07,519.256 1102.4,525.923 1084.5,532C 1080.23,533.366 1078.73,536.199 1080,540.5C 1081.07,541.191 1082.23,541.691 1083.5,542C 1103.5,542.5 1123.5,542.667 1143.5,542.5C 1143.5,548.167 1143.5,553.833 1143.5,559.5C 1122.16,559.667 1100.83,559.5 1079.5,559C 1064.82,556.168 1059.32,547.335 1063,532.5C 1065.47,526.026 1069.97,521.526 1076.5,519C 1093.43,513.025 1110.26,506.858 1127,500.5C 1128.92,497.669 1128.42,495.169 1125.5,493C 1105.5,492.5 1085.5,492.333 1065.5,492.5C 1065.5,486.833 1065.5,481.167 1065.5,475.5C 1086.84,475.333 1108.17,475.5 1129.5,476C 1136.45,477.455 1141.45,481.288 1144.5,487.5 Z"/></g>
<g><path style="opacity:0.981" fill="#4c4d4c" d="M 667.5,651.5 C 663.833,651.5 660.167,651.5 656.5,651.5C 560.578,641.207 464.578,630.707 368.5,620C 370.995,613.183 373.495,606.35 376,599.5C 376.75,598.874 377.584,598.374 378.5,598C 482.471,592.82 586.471,588.32 690.5,584.5C 740.266,586.857 789.933,590.691 839.5,596C 840.766,596.309 841.933,596.809 843,597.5C 845.264,602.793 847.431,608.127 849.5,613.5C 848.619,614.971 847.286,615.804 845.5,616C 785.993,627.668 726.66,639.501 667.5,651.5 Z"/></g>
</svg>
